<svg id="SvgjsSvg1001" width="288" height="288" xmlns="http://www.w3.org/2000/svg" version="1.1" xmlns:xlink="http://www.w3.org/1999/xlink" xmlns:svgjs="http://svgjs.com/svgjs"><defs id="SvgjsDefs1002"></defs><g id="SvgjsG1008" transform="matrix(0.9167,0,0,0.9167,11.995198728942881,11.995198728942881)"><svg xmlns="http://www.w3.org/2000/svg" enable-background="new 0 0 512 512" viewBox="0 0 512 512" width="288" height="288"><path d="M175.445 336.555c-5-5.009-13.099-5.009-18.099 0L25.6 468.301V396.8c0-7.074-5.726-12.8-12.8-12.8C5.726 384 0 389.726 0 396.8v102.4c0 7.074 5.726 12.8 12.8 12.8h102.4c7.074 0 12.8-5.726 12.8-12.8 0-7.074-5.726-12.8-12.8-12.8H43.699l131.746-131.746C180.446 349.653 180.446 341.555 175.445 336.555zM499.2 0H396.8C389.726 0 384 5.726 384 12.8c0 7.074 5.726 12.8 12.8 12.8h71.492L336.555 157.346c-5.001 5.001-5.001 13.099 0 18.099 5 5.001 13.099 5.001 18.099 0L486.4 43.699V115.2c0 7.074 5.726 12.8 12.8 12.8 7.074 0 12.8-5.726 12.8-12.8V12.8C512 5.726 506.274 0 499.2 0z" fill="#9c9c9c" class="color000 svgShape"></path></svg></g></svg>